<svg xmlns="http://www.w3.org/2000/svg" width="16" height="16" viewBox="0 0 16 16">
  <g id="_003-whatsapp" data-name="003-whatsapp" transform="translate(0 0)">
    <path id="Path_52446" data-name="Path 52446" d="M8,0a8,8,0,1,0,8,8A8,8,0,0,0,8,0Zm.17,12.658h0a4.786,4.786,0,0,1-2.288-.583l-2.538.666.679-2.48a4.788,4.788,0,1,1,4.149,2.4Zm0,0" transform="translate(0 0)" fill="#9d9d9d"/>
    <path id="Path_52447" data-name="Path 52447" d="M138.052,124.469a3.98,3.98,0,0,0-3.373,6.1l.095.151-.4,1.468,1.506-.4.145.086a3.973,3.973,0,0,0,2.025.555h0a3.98,3.98,0,0,0,0-7.96Zm2.341,5.689a1.233,1.233,0,0,1-.808.569,1.642,1.642,0,0,1-.754-.047,6.912,6.912,0,0,1-.682-.252,5.333,5.333,0,0,1-2.044-1.806,2.326,2.326,0,0,1-.489-1.237,1.341,1.341,0,0,1,.419-1,.44.44,0,0,1,.319-.15c.08,0,.16,0,.229,0s.172-.028.269.205.339.828.369.888a.221.221,0,0,1,.01.21,3.406,3.406,0,0,1-.3.409c-.053.066-.122.124-.052.244a3.607,3.607,0,0,0,.666.829,3.27,3.27,0,0,0,.962.594c.12.06.189.05.259-.03s.3-.349.379-.469.16-.1.269-.06.7.329.817.389.2.09.229.14A1,1,0,0,1,140.393,130.157Zm0,0" transform="translate(-129.881 -120.579)" fill="#9d9d9d"/>
  </g>
</svg>
