<svg xmlns="http://www.w3.org/2000/svg" width="16" height="16" viewBox="0 0 16 16">
  <g id="_008-youtube" data-name="008-youtube" transform="translate(0 0)">
    <path id="Path_52455" data-name="Path 52455" d="M224.113,211.037l2.6-1.5-2.6-1.5Zm0,0" transform="translate(-217.11 -201.538)" fill="#9d9d9d"/>
    <path id="Path_52456" data-name="Path 52456" d="M8,0a8,8,0,1,0,8,8A8,8,0,0,0,8,0Zm5,8.008a13.2,13.2,0,0,1-.206,2.4,1.253,1.253,0,0,1-.881.881A30.406,30.406,0,0,1,8,11.5a29.318,29.318,0,0,1-3.912-.214,1.253,1.253,0,0,1-.881-.881A13.146,13.146,0,0,1,3,8a13.2,13.2,0,0,1,.206-2.4,1.278,1.278,0,0,1,.881-.889A30.406,30.406,0,0,1,8,4.5a29.256,29.256,0,0,1,3.912.214,1.253,1.253,0,0,1,.881.881A12.53,12.53,0,0,1,13,8.008Zm0,0" transform="translate(0 0)" fill="#9d9d9d"/>
  </g>
</svg>
