<svg xmlns="http://www.w3.org/2000/svg" width="16" height="16" viewBox="0 0 16 16">
  <path id="_010-linkedin" data-name="010-linkedin" d="M8,0a8,8,0,1,0,8,8A8,8,0,0,0,8,0ZM5.675,12.094H3.727V6.232H5.675ZM4.7,5.432H4.688a1.015,1.015,0,1,1,.026-2.025A1.016,1.016,0,1,1,4.7,5.432Zm8,6.662H10.753V8.958c0-.788-.282-1.326-.987-1.326a1.067,1.067,0,0,0-1,.713A1.334,1.334,0,0,0,8.7,8.82v3.273H6.754s.026-5.312,0-5.862H8.7v.83a1.934,1.934,0,0,1,1.756-.968c1.282,0,2.243.838,2.243,2.638Zm0,0" fill="#9d9d9d"/>
</svg>
