<svg xmlns="http://www.w3.org/2000/svg" width="16" height="16" viewBox="0 0 16 16">
  <g id="_011-instagram" data-name="011-instagram" transform="translate(0 0)">
    <path id="Path_52459" data-name="Path 52459" d="M210.063,208.531A1.531,1.531,0,1,1,208.531,207,1.531,1.531,0,0,1,210.063,208.531Zm0,0" transform="translate(-200.531 -200.531)" fill="#9d9d9d"/>
    <path id="Path_52460" data-name="Path 52460" d="M142.832,136.545a1.521,1.521,0,0,0-.872-.872,2.542,2.542,0,0,0-.853-.158c-.484-.022-.63-.027-1.856-.027s-1.372,0-1.856.027a2.543,2.543,0,0,0-.853.158,1.522,1.522,0,0,0-.872.872,2.543,2.543,0,0,0-.158.853c-.022.484-.027.63-.027,1.856s0,1.372.027,1.856a2.542,2.542,0,0,0,.158.853,1.521,1.521,0,0,0,.872.872,2.539,2.539,0,0,0,.853.158c.484.022.63.027,1.856.027s1.372,0,1.856-.027a2.539,2.539,0,0,0,.853-.158,1.521,1.521,0,0,0,.872-.872,2.544,2.544,0,0,0,.158-.853c.022-.484.027-.63.027-1.856s0-1.372-.027-1.856A2.539,2.539,0,0,0,142.832,136.545Zm-3.581,5.068a2.359,2.359,0,1,1,2.359-2.359A2.359,2.359,0,0,1,139.251,141.613Zm2.452-4.26a.551.551,0,1,1,.551-.551A.551.551,0,0,1,141.7,137.353Zm0,0" transform="translate(-131.251 -131.254)" fill="#9d9d9d"/>
    <path id="Path_52461" data-name="Path 52461" d="M8,0a8,8,0,1,0,8,8A8,8,0,0,0,8,0Zm4.566,9.894a3.37,3.37,0,0,1-.214,1.115,2.349,2.349,0,0,1-1.344,1.344,3.373,3.373,0,0,1-1.115.214c-.49.022-.646.028-1.894.028s-1.4-.005-1.894-.028a3.373,3.373,0,0,1-1.115-.214,2.349,2.349,0,0,1-1.344-1.344,3.37,3.37,0,0,1-.214-1.115C3.411,9.4,3.406,9.248,3.406,8s.005-1.4.028-1.894a3.371,3.371,0,0,1,.213-1.115A2.35,2.35,0,0,1,4.991,3.647a3.373,3.373,0,0,1,1.115-.214c.49-.022.646-.028,1.894-.028s1.4.005,1.894.028a3.374,3.374,0,0,1,1.115.213,2.35,2.35,0,0,1,1.344,1.344,3.37,3.37,0,0,1,.214,1.115c.022.49.028.646.028,1.894S12.589,9.4,12.566,9.894Zm0,0" transform="translate(0 0)" fill="#9d9d9d"/>
  </g>
</svg>
