<svg xmlns="http://www.w3.org/2000/svg" width="16" height="16" viewBox="0 0 16 16">
  <path id="_013-twitter" data-name="013-twitter" d="M8,0a8,8,0,1,0,8,8A8,8,0,0,0,8,0Zm3.653,6.238q.005.118.005.237A5.189,5.189,0,0,1,6.433,11.7h0a5.2,5.2,0,0,1-2.815-.825,3.735,3.735,0,0,0,.438.025,3.684,3.684,0,0,0,2.281-.786A1.838,1.838,0,0,1,4.622,8.839a1.83,1.83,0,0,0,.829-.031,1.837,1.837,0,0,1-1.473-1.8c0-.008,0-.016,0-.023a1.824,1.824,0,0,0,.832.23,1.838,1.838,0,0,1-.568-2.451A5.213,5.213,0,0,0,8.027,6.68a1.837,1.837,0,0,1,3.129-1.675,3.683,3.683,0,0,0,1.166-.446,1.843,1.843,0,0,1-.807,1.016,3.662,3.662,0,0,0,1.054-.289A3.732,3.732,0,0,1,11.653,6.238Zm0,0" fill="#9d9d9d"/>
</svg>
