<svg id="attachment-link.9" xmlns="http://www.w3.org/2000/svg" width="24" height="24" viewBox="0 0 24 24">
  <g id="Group_67879" data-name="Group 67879">
    <path id="Path_52323" data-name="Path 52323" d="M15.964,6.036a3.535,3.535,0,0,1,5,0h0a3.535,3.535,0,0,1,0,5l-5.879,5.879a3.535,3.535,0,0,1-5,0h0a3.535,3.535,0,0,1,0-5l.879-.879" fill="none" stroke="#1dbf73" stroke-linecap="round" stroke-linejoin="round" stroke-width="1.5"/>
    <path id="Path_52324" data-name="Path 52324" d="M8.036,18.964a3.535,3.535,0,0,1-5,0h0a3.535,3.535,0,0,1,0-5L8.915,8.085a3.535,3.535,0,0,1,5,0h0a3.535,3.535,0,0,1,0,5L13,14" fill="none" stroke="#1dbf73" stroke-linecap="round" stroke-linejoin="round" stroke-width="1.5"/>
  </g>
  <rect id="Rectangle_331" data-name="Rectangle 331" width="24" height="24" fill="none"/>
</svg>
