<svg id="Cloud_Sync_Synchronize.6" data-name="Cloud, Sync, Synchronize.6" xmlns="http://www.w3.org/2000/svg" width="24" height="24" viewBox="0 0 24 24">
  <path id="Path_52234" data-name="Path 52234" d="M24,24H0V0H24Z" fill="none"/>
  <path id="Path_52235" data-name="Path 52235" d="M3.887,14.281h.058c2.833,0,4.722-.162,4.722-2.833,0-2.833,2.833-2.833,2.833-4.722,0-2.112-3.778-1.889-3.778-3.778V2.88" transform="translate(0 0)" fill="none" stroke="#7e84a3" stroke-linecap="round" stroke-linejoin="round" stroke-width="1.5"/>
  <path id="Path_52236" data-name="Path 52236" d="M20,10.5H16.932a2.44,2.44,0,0,1-1.824-4.061l2.031-2.286" transform="translate(0 0)" fill="none" stroke="#7e84a3" stroke-linecap="round" stroke-linejoin="round" stroke-width="1.5"/>
  <path id="Path_52237" data-name="Path 52237" d="M16,14a3,3,0,0,0-3,3,2,2,0,0,0,0,4h5.5a2.494,2.494,0,0,0,.338-4.966A3,3,0,0,0,16,14Z" transform="translate(0 0)" fill="none" stroke="#7e84a3" stroke-linecap="round" stroke-linejoin="round" stroke-width="1.5"/>
  <path id="Path_52238" data-name="Path 52238" d="M20,10.5A8.5,8.5,0,1,0,7.185,17.815" transform="translate(0 0)" fill="none" stroke="#7e84a3" stroke-linecap="round" stroke-linejoin="round" stroke-width="1.5"/>
</svg>
