<svg id="Cloud_Sync_Synchronize.6" data-name="Cloud, Sync, Synchronize.6" xmlns="http://www.w3.org/2000/svg" width="24" height="24" viewBox="0 0 24 24">
  <path id="Path_52234" data-name="Path 52234" d="M24,24H0V0H24Z" fill="none"/>
  <path id="deployment" d="M19.587,8.785A2.019,2.019,0,0,0,17.6,10.454H13.674a2.878,2.878,0,0,0-.6-1.436l2.76-2.76a2.023,2.023,0,1,0-.492-.492l-2.76,2.76a2.879,2.879,0,0,0-1.436-.6V4a2.016,2.016,0,1,0-.7,0V7.929a2.879,2.879,0,0,0-1.46.614L6.256,5.768a2.022,2.022,0,1,0-.493.492L8.508,9.041a2.877,2.877,0,0,0-.579,1.412H4a2.018,2.018,0,1,0,0,.7H7.93a2.881,2.881,0,0,0,.6,1.435l-2.76,2.76a2.023,2.023,0,1,0,.492.492l2.76-2.76a2.878,2.878,0,0,0,1.437.6V17.6a2.017,2.017,0,1,0,.7,0V13.675a2.875,2.875,0,0,0,1.413-.58l2.782,2.744a2.024,2.024,0,1,0,.491-.493l-2.775-2.738a2.881,2.881,0,0,0,.613-1.459H17.6a2.016,2.016,0,1,0,1.984-2.366Z" transform="translate(0.816 0.816)" fill="#7e84a3"/>
</svg>
