<svg id="dashboardIcon" xmlns="http://www.w3.org/2000/svg" width="24" height="24" viewBox="0 0 24 24">
  <rect id="BG" width="24" height="24" fill="none"/>
  <g id="Group_67639" data-name="Group 67639" transform="translate(4 4)">
    <g id="Group_145" data-name="Group 145">
      <g id="Group_141" data-name="Group 141">
        <path id="Rounded_Rectangle_1" data-name="Rounded Rectangle 1" d="M30.4,221h3.2a2.4,2.4,0,0,1,2.4,2.4v11.2a2.4,2.4,0,0,1-2.4,2.4H30.4Zm0,1.6h3.2a.8.8,0,0,1,.8.8v11.2a.8.8,0,0,1-.8.8H30.4Zm0-1.6a.8.8,0,1,1-.8.8A.8.8,0,0,1,30.4,221Zm0,14.4a.8.8,0,1,1-.8.8A.8.8,0,0,1,30.4,235.4Zm-8-14.4h3.2a2.4,2.4,0,0,1,2.4,2.4v11.2a2.4,2.4,0,0,1-2.4,2.4H22.4a2.4,2.4,0,0,1-2.4-2.4V223.4a2.4,2.4,0,0,1,2.4-2.4Zm0,1.6h3.2a.8.8,0,0,1,.8.8V225a.8.8,0,0,1-.8.8H22.4a.8.8,0,0,1-.8-.8v-1.6A.8.8,0,0,1,22.4,222.6Zm0,4.8h3.2a.8.8,0,0,1,.8.8v6.4a.8.8,0,0,1-.8.8H22.4a.8.8,0,0,1-.8-.8v-6.4A.8.8,0,0,1,22.4,227.4Z" transform="translate(-20 -221)" fill="#7e84a3" fill-rule="evenodd"/>
      </g>
      <path id="Path_201" data-name="Path 201" d="M13.6,16H10.4a.8.8,0,1,1,0-1.6h3.2a.8.8,0,0,0,.8-.8V2.4a.8.8,0,0,0-.8-.8H10.4a.8.8,0,1,1,0-1.6h3.2A2.4,2.4,0,0,1,16,2.4V13.6A2.4,2.4,0,0,1,13.6,16Zm-8,0H2.4A2.4,2.4,0,0,1,0,13.6V2.4A2.4,2.4,0,0,1,2.4,0H5.6A2.4,2.4,0,0,1,8,2.4V13.6A2.4,2.4,0,0,1,5.6,16ZM6.4,2.4a.8.8,0,0,0-.8-.8H2.4a.8.8,0,0,0-.8.8V4a.8.8,0,0,0,.8.8H5.6A.8.8,0,0,0,6.4,4Zm0,4.8a.8.8,0,0,0-.8-.8H2.4a.8.8,0,0,0-.8.8v6.4a.8.8,0,0,0,.8.8H5.6a.8.8,0,0,0,.8-.8Z" fill="#7e84a3" fill-rule="evenodd"/>
    </g>
  </g>
</svg>
