<svg xmlns="http://www.w3.org/2000/svg" width="181.313" height="181.31" viewBox="0 0 181.313 181.31">
  <g id="Group_67951" data-name="Group 67951" transform="translate(-250 -189.004)">
    <path id="Path_52335" data-name="Path 52335" d="M410.713,328.616a152.254,152.254,0,0,0-18.939-7.36c-2.518-.8-5.233-1.6-8.122-2.378a149.926,149.926,0,0,0,3.584-19.617h1.931a6.541,6.541,0,0,0,6.541-6.541V282.255h30.371a84.938,84.938,0,0,1-15.364,46.361Zm-22.275,21.912a84.988,84.988,0,0,1-29.995,12.741c.194-.145.388-.291.58-.441a57.261,57.261,0,0,0,14.025-16.883,103.708,103.708,0,0,0,9.222-22.062c2.821.754,5.47,1.537,7.926,2.319a156.542,156.542,0,0,1,14.988,5.6c.895.39,1.681.746,2.358,1.06a85.959,85.959,0,0,1-19.1,17.665ZM273.756,332.841a146.062,146.062,0,0,1,25.126-9.493,111.082,111.082,0,0,0,6.451,17.023,78.7,78.7,0,0,0,7.031,11.943,50.441,50.441,0,0,0,10.5,10.949,84.807,84.807,0,0,1-15.476-4.856,85.741,85.741,0,0,1-33.635-25.566Zm-18.52-50.586h29V292.72a6.541,6.541,0,0,0,6.541,6.541h3.309a150.412,150.412,0,0,0,3.445,19.074,151.32,151.32,0,0,0-26.936,10.271q-.406-.58-.8-1.166a85.006,85.006,0,0,1-14.552-45.185ZM270.6,230.7a152.3,152.3,0,0,0,18.939,7.36c2.518.8,5.231,1.6,8.121,2.377a146.767,146.767,0,0,0-2.894,14.448h-3.993a6.541,6.541,0,0,0-6.541,6.541v15.634h-29A84.936,84.936,0,0,1,270.6,230.7Zm22.275-21.912a85,85,0,0,1,30-12.742,42.946,42.946,0,0,0-4.071,3.469,58.638,58.638,0,0,0-8.463,10.449,94.976,94.976,0,0,0-9.9,21.048q-.733,2.168-1.4,4.419c-2.82-.754-5.468-1.536-7.923-2.318a156.6,156.6,0,0,1-14.987-5.6c-.895-.391-1.681-.746-2.358-1.06a85.952,85.952,0,0,1,19.1-17.665Zm114.682,17.687a146.03,146.03,0,0,1-25.128,9.494q-.8-2.724-1.686-5.334a100.132,100.132,0,0,0-7.268-16.509c-4.15-7.4-9.03-13.449-14.549-17.711-.161-.124-.325-.242-.487-.363a84.812,84.812,0,0,1,15.483,4.858,85.741,85.741,0,0,1,33.635,25.566Zm-69.5,19.924v8.487H300.018c.709-4.57,1.607-8.975,2.678-13.179a174.871,174.871,0,0,0,35.365,4.692Zm-5.111-50.077a22.353,22.353,0,0,1,5.111-1.262v46.145a169.721,169.721,0,0,1-33.983-4.506q.668-2.237,1.4-4.383a94.914,94.914,0,0,1,6.884-15.652c3.886-6.938,8.388-12.437,13.192-16.138a28.562,28.562,0,0,1,7.393-4.2Zm42.491,41.389a150.515,150.515,0,0,1-32.187,3.558V195.057a22.124,22.124,0,0,1,4.268.97,30.513,30.513,0,0,1,11.386,7.23,53.483,53.483,0,0,1,7.7,9.527,89.858,89.858,0,0,1,9.342,19.894q.758,2.241,1.445,4.583-.98.233-1.957.452Zm-32.187,8.75a155.706,155.706,0,0,0,33.317-3.682q1.092-.243,2.188-.5c1.008,4.032,1.86,8.246,2.537,12.611H343.254v-8.424Zm41.677,47.6H290.773a1.336,1.336,0,0,1-.524-.1,1.367,1.367,0,0,1-.6-.492,1.329,1.329,0,0,1-.228-.752V261.429a1.335,1.335,0,0,1,.1-.524,1.367,1.367,0,0,1,.492-.6,1.327,1.327,0,0,1,.752-.228h98.392a1.328,1.328,0,0,1,.524.1,1.365,1.365,0,0,1,.6.492,1.325,1.325,0,0,1,.228.752V292.72a1.331,1.331,0,0,1-.1.524,1.362,1.362,0,0,1-.492.6,1.325,1.325,0,0,1-.752.229Zm-41.677,18.849V299.261h38.753a144.342,144.342,0,0,1-3.391,18.348,174.823,174.823,0,0,0-35.363-4.692Zm3.768,50.534a21.982,21.982,0,0,1-3.768.807V318.111a169.712,169.712,0,0,1,33.979,4.506,104.748,104.748,0,0,1-6.09,15.831,72.847,72.847,0,0,1-6.542,11.018,42.38,42.38,0,0,1-11.422,11.124,26,26,0,0,1-6.157,2.86ZM305.872,321.6a150.479,150.479,0,0,1,32.189-3.558v46.212a21.84,21.84,0,0,1-3.108-.615,27.412,27.412,0,0,1-9.574-4.993,52.58,52.58,0,0,1-12.766-15.564,99.272,99.272,0,0,1-8.7-21.032c.653-.154,1.305-.306,1.956-.451Zm32.189-8.75a155.677,155.677,0,0,0-33.319,3.682q-1.092.243-2.187.5a144.859,144.859,0,0,1-3.249-17.78h38.755v13.593Zm88.016-35.791H395.706V261.429a6.541,6.541,0,0,0-6.541-6.541h-2.619c-.721-4.811-1.647-9.458-2.76-13.906a151.357,151.357,0,0,0,26.936-10.271q.406.58.8,1.166a85.006,85.006,0,0,1,14.551,45.185Zm5.235,2.593a90.21,90.21,0,0,0-17.078-52.962,2.564,2.564,0,0,0-1.192-1.616,91.165,91.165,0,0,0-21.7-20.591,90.612,90.612,0,0,0-123.079,20.593,2.558,2.558,0,0,0-1.187,1.612q-.813,1.127-1.594,2.278A90.247,90.247,0,0,0,250,279.64c0,.007,0,.013,0,.019s0,.012,0,.018a90.208,90.208,0,0,0,17.078,52.946,2.557,2.557,0,0,0,1.193,1.616,90.621,90.621,0,0,0,144.775,0,2.558,2.558,0,0,0,1.188-1.613q.813-1.127,1.594-2.278a90.249,90.249,0,0,0,15.484-50.682v-.008Z" fill="#1dbf73"/>
    <path id="Path_52336" data-name="Path 52336" d="M423.51,405.439a2.106,2.106,0,0,0-2.458-.16,1.656,1.656,0,0,0-.707,1l-3.406,12.114-2.892-11.6a2.145,2.145,0,0,0-2.217-1.831,2.073,2.073,0,0,0-2.153,1.8l-2.892,11.6-3.5-12.178a1.613,1.613,0,0,0-1.735-1.221,2.089,2.089,0,0,0-1.382.482,1.625,1.625,0,0,0-.578,1.318,1.788,1.788,0,0,0,.129.771l4.82,16.13a2.206,2.206,0,0,0,.868,1.3,2.512,2.512,0,0,0,1.414.4,2.657,2.657,0,0,0,1.333-.4,2.091,2.091,0,0,0,.948-1.3l2.731-10.668,2.731,10.668a1.993,1.993,0,0,0,.9,1.3,2.725,2.725,0,0,0,1.414.4,2.281,2.281,0,0,0,1.35-.434,2.346,2.346,0,0,0,.867-1.269l4.852-16.13.112-.45a1.592,1.592,0,0,0,.048-.385,1.54,1.54,0,0,0-.594-1.253Z" transform="translate(-95.344 -137.643)" fill="#1dbf73"/>
    <path id="Path_52337" data-name="Path 52337" d="M492.269,405.439a2.106,2.106,0,0,0-2.458-.16,1.656,1.656,0,0,0-.707,1L485.7,418.388l-2.892-11.6a2.145,2.145,0,0,0-2.217-1.831,2.073,2.073,0,0,0-2.153,1.8l-2.892,11.6-3.5-12.178a1.614,1.614,0,0,0-1.735-1.221,2.089,2.089,0,0,0-1.382.482,1.625,1.625,0,0,0-.578,1.318,1.783,1.783,0,0,0,.129.771l4.82,16.13a2.2,2.2,0,0,0,.868,1.3,2.512,2.512,0,0,0,1.414.4,2.657,2.657,0,0,0,1.334-.4,2.091,2.091,0,0,0,.948-1.3l2.731-10.668,2.731,10.668a1.992,1.992,0,0,0,.9,1.3,2.724,2.724,0,0,0,1.414.4,2.279,2.279,0,0,0,1.349-.434,2.345,2.345,0,0,0,.868-1.269l4.852-16.13.112-.45a1.593,1.593,0,0,0,.048-.385,1.539,1.539,0,0,0-.594-1.253Z" transform="translate(-139.169 -137.643)" fill="#1dbf73"/>
    <path id="Path_52338" data-name="Path 52338" d="M561.028,405.439a2.106,2.106,0,0,0-2.458-.16,1.654,1.654,0,0,0-.707,1l-3.406,12.114-2.892-11.6a2.145,2.145,0,0,0-2.217-1.831,2.073,2.073,0,0,0-2.153,1.8l-2.892,11.6-3.5-12.178a1.614,1.614,0,0,0-1.735-1.221,2.088,2.088,0,0,0-1.382.482,1.625,1.625,0,0,0-.578,1.318,1.789,1.789,0,0,0,.128.771l4.82,16.13a2.205,2.205,0,0,0,.867,1.3,2.514,2.514,0,0,0,1.414.4,2.655,2.655,0,0,0,1.333-.4,2.09,2.09,0,0,0,.948-1.3l2.731-10.668,2.731,10.668a1.994,1.994,0,0,0,.9,1.3,2.724,2.724,0,0,0,1.414.4,2.279,2.279,0,0,0,1.349-.434,2.346,2.346,0,0,0,.868-1.269l4.852-16.13q.064-.257.112-.45a1.588,1.588,0,0,0,.048-.385,1.539,1.539,0,0,0-.594-1.253Z" transform="translate(-182.994 -137.643)" fill="#1dbf73"/>
  </g>
</svg>
