<svg xmlns="http://www.w3.org/2000/svg" width="14.25" height="14.375" viewBox="0 0 14.25 14.375">
  <g id="Group_68347" data-name="Group 68347" transform="translate(0.75 0.875)">
    <path id="Path_52403" data-name="Path 52403" d="M7.392,15.75H4V12.358H4a1.31,1.31,0,0,1,.384-.927L12.43,3.385h0a1.31,1.31,0,0,1,1.853,0l0,0,2.081,2.081h0a1.31,1.31,0,0,1,0,1.853l0,0L8.319,15.366h0a1.313,1.313,0,0,1-.927.384Z" transform="translate(-4 -3)" fill="none" stroke="#7e84a3" stroke-linecap="round" stroke-linejoin="round" stroke-width="1.5"/>
    <line id="Line_34" data-name="Line 34" x2="3.75" y2="3.75" transform="translate(6.75 2.25)" fill="none" stroke="#7e84a3" stroke-linecap="round" stroke-linejoin="round" stroke-width="1.5"/>
    <line id="Line_35" data-name="Line 35" y1="2.25" x2="2.25" transform="translate(3.75 6.75)" fill="none" stroke="#7e84a3" stroke-linecap="round" stroke-linejoin="round" stroke-width="1.5"/>
  </g>
</svg>
