<svg xmlns="http://www.w3.org/2000/svg" xmlns:xlink="http://www.w3.org/1999/xlink" width="114.966" height="51.75" viewBox="0 0 114.966 51.75">
  <defs>
    <linearGradient id="linear-gradient" x1="0.5" y1="0.951" x2="0.5" y2="-2.474" gradientUnits="objectBoundingBox">
      <stop offset="0" stop-color="#2dc98c" stop-opacity="0.09"/>
      <stop offset="1" stop-color="#2dc98c"/>
    </linearGradient>
  </defs>
  <g id="grahpIcon" transform="translate(0.906 0.75)">
    <path id="Path_2" data-name="Path 2" d="M0,44l14.66-3.557,6.317-7.192,6.726,3L48.138,0l11.8,27.622L71.6,14.258l9.338,13.668,6.368,5.325,6.861-5.629,6.93,2.263,11.9-12.8" transform="translate(0)" fill="none" stroke="#1dbf73" stroke-linecap="round" stroke-linejoin="round" stroke-miterlimit="10" stroke-width="1.5"/>
    <path id="Path_2-2" data-name="Path 2" d="M0,43.852l14.66-3.545,6.317-7.168L27.7,36.132,48.138,0l11.8,27.53L71.6,14.21l9.338,13.622,6.368,5.307,6.616-5.307,7.174,1.953L113,17.032V51H0Z" transform="translate(0)" fill="url(#linear-gradient)"/>
  </g>
</svg>
