<svg id="Icon" xmlns="http://www.w3.org/2000/svg" width="24" height="24" viewBox="0 0 24 24">
  <rect id="BG" width="24" height="24" fill="none"/>
  <path id="apps" d="M7.258,9.229h-4.6A.657.657,0,0,0,2,9.886v4.6a.657.657,0,0,0,.657.657h4.6a.657.657,0,0,0,.657-.657v-4.6A.657.657,0,0,0,7.258,9.229Zm-.657,4.6H3.314V10.543H6.6ZM14.487,2h-4.6a.657.657,0,0,0-.657.657v4.6a.657.657,0,0,0,.657.657h4.6a.657.657,0,0,0,.657-.657v-4.6A.657.657,0,0,0,14.487,2Zm-.657,4.6H10.543V3.314h3.286Zm.657,2.629h-4.6a.657.657,0,0,0-.657.657v4.6a.657.657,0,0,0,.657.657h4.6a.657.657,0,0,0,.657-.657v-4.6A.657.657,0,0,0,14.487,9.229Zm-.657,4.6H10.543V10.543h3.286ZM7.258,2h-4.6A.657.657,0,0,0,2,2.657v4.6a.657.657,0,0,0,.657.657h4.6a.657.657,0,0,0,.657-.657v-4.6A.657.657,0,0,0,7.258,2ZM6.6,6.6H3.314V3.314H6.6Z" transform="translate(3.428 3.428)" fill="#fff"/>
</svg>
