<svg id="Group_65641" data-name="Group 65641" xmlns="http://www.w3.org/2000/svg" width="16.414" height="16.414" viewBox="0 0 16.414 16.414">
  <path id="Path_378" data-name="Path 378" d="M15,8a1,1,0,0,1-1-1V3a1,1,0,0,0-1-1H3A1,1,0,0,0,2,3V13a1,1,0,0,0,1,1H5a1,1,0,0,1,0,2H3a3,3,0,0,1-3-3V3A3,3,0,0,1,3,0H13a3,3,0,0,1,3,3V7A1,1,0,0,1,15,8Z" fill="#fff" fill-rule="evenodd"/>
  <path id="Path_379" data-name="Path 379" d="M8,15l5-5,2,2" fill="none" stroke="#fff" stroke-linecap="round" stroke-linejoin="round" stroke-width="2" fill-rule="evenodd"/>
  <path id="Path_380" data-name="Path 380" d="M7,10a3,3,0,1,1,3-3A3,3,0,0,1,7,10ZM7,6A1,1,0,1,0,8,7,1,1,0,0,0,7,6Z" fill="#fff" fill-rule="evenodd"/>
</svg>
