<svg xmlns="http://www.w3.org/2000/svg" width="19.257" height="21.833" viewBox="0 0 19.257 21.833">
  <g id="Group_67648" data-name="Group 67648" transform="translate(1 1)">
    <path id="Path_52247" data-name="Path 52247" d="M19.649,19.669h0a2.217,2.217,0,0,0,2.217-2.21h0a2.339,2.339,0,0,0-.69-1.656l-1.469-1.47V9.967h0A6.468,6.468,0,0,0,13.239,3.5h-.006A6.468,6.468,0,0,0,6.767,9.967V14.33L5.3,15.8h0a2.34,2.34,0,0,0-.691,1.655h0a2.217,2.217,0,0,0,2.217,2.21Z" transform="translate(-4.608 -3.5)" fill="none" stroke="#7e84a3" stroke-linecap="round" stroke-linejoin="round" stroke-width="2"/>
    <path id="Path_52248" data-name="Path 52248" d="M17.5,17.359h0" transform="translate(-2.459 -1.19)" fill="none" stroke="#7e84a3" stroke-linecap="round" stroke-linejoin="round" stroke-width="2"/>
    <path id="Path_52249" data-name="Path 52249" d="M10.521,20.5h3.45" transform="translate(-3.622 -0.667)" fill="none" stroke="#7e84a3" stroke-linecap="round" stroke-linejoin="round" stroke-width="2"/>
  </g>
</svg>
