<svg id="settingIconGreen" xmlns="http://www.w3.org/2000/svg" width="24" height="24" viewBox="0 0 24 24">
  <rect id="BG" width="24" height="24" fill="none"/>
  <path id="color" d="M11.5,20h-3L6,17l-4-.5-2-3L2,10,0,6.5l2-3L6,3,8.5,0h3L14,3l4,.5,2,3L18,10l2,3.5-2,3L14,17l-2.5,3ZM9.437,2,7.031,4.887,3.156,5.37,2.35,6.581,4.3,10,2.35,13.418l.806,1.21,3.874.485L9.436,18h1.128l2.406-2.885,3.874-.485.806-1.21L15.7,10l1.952-3.419-.806-1.21-3.874-.483L10.562,2ZM10,14a4,4,0,1,1,4-4A4,4,0,0,1,10,14Zm0-6a2,2,0,1,0,2,2A2,2,0,0,0,10,8Z" transform="translate(2 2)" fill="#1dbf73"/>
</svg>
