<svg xmlns="http://www.w3.org/2000/svg" width="15" height="15" viewBox="0 0 15 15">
  <path id="color" d="M8.625,15H6.375L4.5,12.75l-3-.375L0,10.125,1.5,7.5,0,4.875l1.5-2.25,3-.375L6.375,0h2.25L10.5,2.25l3,.375L15,4.875,13.5,7.5,15,10.125l-1.5,2.25-3,.375L8.625,15ZM7.078,1.5l-1.8,2.166-2.906.362-.6.908L3.228,7.5,1.762,10.064l.6.908,2.906.364,1.8,2.164h.846l1.8-2.164,2.905-.364.6-.908L11.773,7.5l1.464-2.564-.6-.908L9.727,3.665,7.922,1.5Zm.422,9a3,3,0,1,1,3-3A3,3,0,0,1,7.5,10.5ZM7.5,6A1.5,1.5,0,1,0,9,7.5,1.5,1.5,0,0,0,7.5,6Z" fill="#7e84a3"/>
</svg>
