<svg id="share-arrow-square.1" xmlns="http://www.w3.org/2000/svg" width="24" height="24" viewBox="0 0 24 24">
  <g id="Group_68357" data-name="Group 68357">
    <path id="Path_52422" data-name="Path 52422" d="M15.969,4.577h0A5.6,5.6,0,0,0,11,10.137v.354h0a6.6,6.6,0,0,1,4.969-2.384V9.975h0a.708.708,0,0,0,1.146.556L21.74,6.878h0a.682.682,0,0,0,0-1.072L17.115,2.154h0a.707.707,0,0,0-1.146.555Z" fill="none" stroke="#1dbf73" stroke-linecap="round" stroke-linejoin="round" stroke-width="1.5"/>
    <path id="Path_52423" data-name="Path 52423" d="M21,12v4h0a5,5,0,0,1-5,5H8a5,5,0,0,1-5-5H3V8H3A5,5,0,0,1,8,3h3" fill="none" stroke="#1dbf73" stroke-linecap="round" stroke-linejoin="round" stroke-width="1.5"/>
  </g>
  <path id="Path_52424" data-name="Path 52424" d="M0,0H24V24H0Z" fill="none"/>
</svg>
