<svg id="share.1" xmlns="http://www.w3.org/2000/svg" width="28.377" height="28.377" viewBox="0 0 28.377 28.377">
  <g id="Group_67809" data-name="Group 67809" transform="translate(6.319 3.665)">
    <path id="Path_52312" data-name="Path 52312" d="M14.842,7.52,9.47,11.543" transform="translate(-4.878 -2.924)" fill="none" stroke="#323232" stroke-linecap="round" stroke-linejoin="round" stroke-width="1.5"/>
    <path id="Path_52313" data-name="Path 52313" d="M17.526,4.835a2.689,2.689,0,1,1-3.8,0,2.689,2.689,0,0,1,3.8,0" transform="translate(-3.758 -4.047)" fill="none" stroke="#323232" stroke-linecap="round" stroke-linejoin="round" stroke-width="1.5"/>
    <path id="Path_52314" data-name="Path 52314" d="M14.842,17.463,9.47,13.44" transform="translate(-4.878 -1.011)" fill="none" stroke="#323232" stroke-linecap="round" stroke-linejoin="round" stroke-width="1.5"/>
    <path id="Path_52315" data-name="Path 52315" d="M17.526,16.677a2.689,2.689,0,1,1-3.8,0,2.689,2.689,0,0,1,3.8,0" transform="translate(-3.758 -0.219)" fill="none" stroke="#323232" stroke-linecap="round" stroke-linejoin="round" stroke-width="1.5"/>
    <path id="Path_52316" data-name="Path 52316" d="M10.586,10.757a2.686,2.686,0,1,1-3.8,0,2.686,2.686,0,0,1,3.8,0" transform="translate(-6 -2.133)" fill="none" stroke="#323232" stroke-linecap="round" stroke-linejoin="round" stroke-width="1.5"/>
  </g>
  <path id="Path_52317" data-name="Path 52317" d="M0,0H28.377V28.377H0Z" fill="none"/>
</svg>
