<svg xmlns="http://www.w3.org/2000/svg" xmlns:xlink="http://www.w3.org/1999/xlink" width="94" height="23" viewBox="0 0 94 23">
  <defs>
    <clipPath id="clip-path">
      <rect id="Rectangle_29" data-name="Rectangle 29" width="94" height="23" transform="translate(0 0)" fill="#fff" opacity="0.36"/>
    </clipPath>
    <filter id="Rectangle_28" x="2.5" y="1.5" width="25" height="24" filterUnits="userSpaceOnUse">
      <feOffset dy="2" input="SourceAlpha"/>
      <feGaussianBlur stdDeviation="1.5" result="blur"/>
      <feFlood flood-opacity="0.051"/>
      <feComposite operator="in" in2="blur"/>
      <feComposite in="SourceGraphic"/>
    </filter>
    <filter id="Ellipse_1" x="12.941" y="12.332" width="4.592" height="4.649" filterUnits="userSpaceOnUse">
      <feOffset dy="1" input="SourceAlpha"/>
      <feGaussianBlur stdDeviation="0.5" result="blur-2"/>
      <feFlood flood-opacity="0.161"/>
      <feComposite operator="in" in2="blur-2"/>
      <feComposite in="SourceGraphic"/>
    </filter>
  </defs>
  <g id="Mask_Group_1" data-name="Mask Group 1" transform="translate(0 0)" clip-path="url(#clip-path)">
    <g id="Group_146" data-name="Group 146" transform="translate(7.149 3.575)">
      <path id="Path_122" data-name="Path 122" d="M8.4-73.012c-2.007,0-3.756,1.181-3.756,3.181s1.353,2.772,3.5,3.307c1.551.378,2.1.913,2.1,1.827,0,.835-.76,1.37-1.718,1.37a2.106,2.106,0,0,1-2.174-1.811H4.2C4.4-62.854,6.04-61.7,8.549-61.7c2.068,0,3.877-1.165,3.877-3.213,0-1.748-1.034-2.85-3.345-3.4-1.673-.41-2.235-.866-2.235-1.78,0-.882.639-1.291,1.475-1.291a1.75,1.75,0,0,1,1.81,1.8h2.144A3.554,3.554,0,0,0,8.4-73.012Zm8.135,7.78,2.509,3.307h2.647l-3.635-4.488,3.589-3.89H19.117l-3.254,3.827V-73.5h-2.1v11.575h2.1v-2.551Zm10.659,3.307h2.053a14.987,14.987,0,0,1-.152-2.126V-66.76c0-.457-.015-.9-.046-1.291-.122-1.449-.973-2.472-3.239-2.472-1.931,0-3.406,1.071-3.467,2.961l2.037-.016c.061-.913.517-1.417,1.353-1.417a1.088,1.088,0,0,1,1.247,1.008,7.094,7.094,0,0,1,.03.787v.173h-.517c-2.935,0-4.455,1.039-4.455,2.882a2.4,2.4,0,0,0,2.6,2.441,3.422,3.422,0,0,0,2.007-.551l.4-.9Zm-1.749-1.307c-.745,0-1.232-.346-1.232-1.087,0-1.1,1.125-1.5,2.8-1.37v.677a1.585,1.585,0,0,1-1.566,1.78Zm10.4-7.292a3.482,3.482,0,0,0-2.1.583l-.609.913V-70.3h-2.1v11.465h2.1v-4.2l.532.866a3.681,3.681,0,0,0,1.9.473c2.083,0,3.877-1.543,3.877-4.567C39.447-68.744,38.108-70.524,35.844-70.524Zm-.684,7.292c-.973,0-2.022-.677-2.022-2.583v-.394c0-2.047.943-2.788,2.1-2.788,1.247,0,2.038,1.15,2.038,2.866,0,1.937-.9,2.9-2.114,2.9ZM45.62-70.524a3.482,3.482,0,0,0-2.1.583l-.609.913V-70.3h-2.1v11.465h2.1v-4.2l.532.866a3.681,3.681,0,0,0,1.9.473c2.083,0,3.877-1.543,3.877-4.567C49.224-68.744,47.886-70.524,45.62-70.524Zm-.684,7.292c-.973,0-2.022-.677-2.022-2.583v-.394c0-2.047.943-2.788,2.1-2.788,1.247,0,2.038,1.15,2.038,2.866C47.049-64.193,46.152-63.232,44.936-63.232Zm6.553-1.118a1.2,1.2,0,0,0-.912.374,1.286,1.286,0,0,0-.35.949,1.286,1.286,0,0,0,.35.949,1.2,1.2,0,0,0,.912.374,1.2,1.2,0,0,0,.921-.369,1.29,1.29,0,0,0,.356-.954,1.29,1.29,0,0,0-.356-.954A1.2,1.2,0,0,0,51.489-64.35Zm3.877-9.071a1.1,1.1,0,0,0-1.156,1.15,1.092,1.092,0,0,0,1.156,1.15,1.092,1.092,0,0,0,1.156-1.15,1.1,1.1,0,0,0-1.155-1.15Zm1.049,11.5V-70.3h-2.1v8.378Zm5.6-8.6c-2.692,0-4.2,1.858-4.2,4.41,0,2.535,1.505,4.41,4.2,4.41s4.2-1.874,4.2-4.41C66.208-68.665,64.7-70.524,62.012-70.524Zm0,7.292c-1.262,0-2.022-1.087-2.022-2.882,0-1.811.76-2.882,2.022-2.882s2.022,1.071,2.022,2.882C64.034-64.319,63.274-63.232,62.012-63.232Z" transform="translate(16.493 75.276)" fill="#4e4e4e"/>
      <g id="Group_145" data-name="Group 145" transform="translate(0 0)">
        <g transform="matrix(1, 0, 0, 1, -7.15, -3.57)" filter="url(#Rectangle_28)">
          <rect id="Rectangle_28-2" data-name="Rectangle 28" width="16" height="15" rx="2" transform="translate(7 4)" fill="#4e4e4e"/>
        </g>
        <g id="Group_144" data-name="Group 144" transform="translate(2.861 3.354)">
          <g id="Group_142" data-name="Group 142" transform="translate(0 0)">
            <g id="Group_140" data-name="Group 140" transform="translate(0)">
              <g id="Group_139" data-name="Group 139">
                <g id="Path_113" data-name="Path 113">
                  <path id="Path_123" data-name="Path 123" d="M689.646,590.455a.414.414,0,0,1-.228-.068.455.455,0,0,1-.149-.6l4.753-8.814a.431.431,0,0,1,.377-.229.425.425,0,0,1,.218.061.437.437,0,0,1,.159.167l4.75,8.812a.454.454,0,0,1-.148.6.417.417,0,0,1-.228.068h0a.426.426,0,0,1-.354-.193,5.315,5.315,0,0,0-3.328-2.278l-.053-.011.022-.051a1.2,1.2,0,0,0,.1-.489,1.215,1.215,0,0,0-.034-.289l-.016-.067.066.013a6.049,6.049,0,0,1,1.926.737l-3.081-5.715-3.082,5.715a6.034,6.034,0,0,1,1.925-.736l.066-.013-.016.067a1.22,1.22,0,0,0-.035.288,1.2,1.2,0,0,0,.1.489l.022.051-.052.011a5.317,5.317,0,0,0-3.328,2.28A.426.426,0,0,1,689.646,590.455Z" transform="translate(-689.172 -580.704)" fill="#fff"/>
                  <path id="Path_124" data-name="Path 124" d="M689.389,590.155a.383.383,0,0,0,.319-.174,5.384,5.384,0,0,1,3.355-2.3,1.263,1.263,0,0,1-.071-.806,6.025,6.025,0,0,0-2.047.814l3.2-5.927,3.2,5.927a6.04,6.04,0,0,0-2.048-.815,1.271,1.271,0,0,1,.036.3,1.253,1.253,0,0,1-.106.507,5.381,5.381,0,0,1,3.355,2.3.384.384,0,0,0,.319.174.375.375,0,0,0,.205-.061.409.409,0,0,0,.134-.538l-4.75-8.812a.39.39,0,0,0-.143-.15.38.38,0,0,0-.2-.055.388.388,0,0,0-.34.206l-4.753,8.814a.41.41,0,0,0,.134.538.371.371,0,0,0,.205.061m0,.088a.456.456,0,0,1-.25-.075.5.5,0,0,1-.164-.656l4.753-8.814a.474.474,0,0,1,.414-.251.466.466,0,0,1,.239.067.478.478,0,0,1,.175.184l4.75,8.812a.5.5,0,0,1-.163.656.459.459,0,0,1-.25.075.468.468,0,0,1-.39-.212,5.272,5.272,0,0,0-3.3-2.26l-.105-.022.045-.1a1.156,1.156,0,0,0,.1-.47,1.171,1.171,0,0,0-.033-.278l-.033-.134.131.026a6.093,6.093,0,0,1,1.807.666l-2.971-5.51-2.972,5.51a6.071,6.071,0,0,1,1.806-.665l.131-.026-.033.134a1.167,1.167,0,0,0-.033.277,1.154,1.154,0,0,0,.1.47l.045.1-.105.022a5.276,5.276,0,0,0-3.3,2.262A.468.468,0,0,1,689.389,590.243Z" transform="translate(-688.914 -580.448)" fill="#fff"/>
                </g>
              </g>
            </g>
          </g>
          <g transform="matrix(1, 0, 0, 1, -10.01, -6.93)" filter="url(#Ellipse_1)">
            <ellipse id="Ellipse_1-2" data-name="Ellipse 1" cx="0.796" cy="0.824" rx="0.796" ry="0.824" transform="translate(14.44 12.83)" fill="#fff"/>
          </g>
        </g>
      </g>
    </g>
  </g>
</svg>
