<svg id="star-favorite" xmlns="http://www.w3.org/2000/svg" width="18.614" height="18.614" viewBox="0 0 18.614 18.614">
  <path id="Path_52306" data-name="Path 52306" d="M0,0H18.614V18.614H0Z" fill="none"/>
  <path id="Path_52307" data-name="Path 52307" d="M6.559,16.827h0a1.163,1.163,0,0,1-1.684-1.235L5.5,12,2.861,9.464h0A1.163,1.163,0,0,1,3.5,7.47L7.17,6.946l1.656-3.3h0a1.163,1.163,0,0,1,2.085,0l1.656,3.3,3.668.524h0a1.163,1.163,0,0,1,.641,1.994L14.234,12l.627,3.6h0a1.163,1.163,0,0,1-1.684,1.235l-3.309-1.71Z" transform="translate(-0.561 -0.672)" fill="#1dbf73"/>
</svg>
