<svg id="starOutlinedIcon" xmlns="http://www.w3.org/2000/svg" width="24" height="24" viewBox="0 0 24 24">
  <rect id="BG" width="24" height="24" fill="none"/>
  <path id="color" d="M4.053,17a1,1,0,0,1-.855-.48.966.966,0,0,1-.115-.716l1.136-4.975L.337,7.462a.972.972,0,0,1-.09-1.384A1,1,0,0,1,.9,5.748l5.143-.471L8.087.593a1,1,0,0,1,1.825,0l2.043,4.684,5.143.471a.989.989,0,0,1,.677.355.973.973,0,0,1-.112,1.359l-3.881,3.366L14.918,15.8a.965.965,0,0,1-.127.736.985.985,0,0,1-.624.437,1.009,1.009,0,0,1-.726-.113L9,14.259l-4.441,2.6A1,1,0,0,1,4.053,17ZM9,3.461,7.4,7.123l-4.022.368,3.035,2.632-.888,3.888L9,11.977H9l3.471,2.035-.887-3.888,3.033-2.632L10.6,7.123Z" transform="translate(3 3)" fill="#7e84a3"/>
</svg>
