<svg id="Twitter" xmlns="http://www.w3.org/2000/svg" width="42.441" height="42.441" viewBox="0 0 42.441 42.441">
  <circle id="Oval" cx="21.221" cy="21.221" r="21.221" transform="translate(0)" fill="#2aa3ef"/>
  <path id="Twitter-2" data-name="Twitter" d="M17.412,1.675a7.166,7.166,0,0,1-2.052.563A3.583,3.583,0,0,0,16.93.262a7.139,7.139,0,0,1-2.269.866,3.574,3.574,0,0,0-6.18,2.444,3.612,3.612,0,0,0,.093.815A10.14,10.14,0,0,1,1.213.654,3.575,3.575,0,0,0,2.318,5.422,3.543,3.543,0,0,1,.7,4.975v.045a3.573,3.573,0,0,0,2.865,3.5,3.567,3.567,0,0,1-.941.125,3.514,3.514,0,0,1-.672-.065A3.578,3.578,0,0,0,5.29,11.064,7.177,7.177,0,0,1,.852,12.592,7.2,7.2,0,0,1,0,12.542a10.109,10.109,0,0,0,5.476,1.6A10.093,10.093,0,0,0,15.64,3.986c0-.156,0-.308-.01-.462a7.26,7.26,0,0,0,1.782-1.848Z" transform="translate(12.515 14.147)" fill="#fff"/>
</svg>
