<svg xmlns="http://www.w3.org/2000/svg" xmlns:xlink="http://www.w3.org/1999/xlink" width="28" height="28" viewBox="0 0 28 28">
  <defs>
    <clipPath id="clip-path">
      <circle id="Ellipse_37" data-name="Ellipse 37" cx="14" cy="14" r="14" transform="translate(13 1298)" fill="#c7d6db"/>
    </clipPath>
  </defs>
  <g id="Group_68397" data-name="Group 68397" transform="translate(-8 -1287)">
    <circle id="Ellipse_25" data-name="Ellipse 25" cx="14" cy="14" r="14" transform="translate(8 1287)" fill="#7e84a3" opacity="0.11"/>
    <g id="Mask_Group_2" data-name="Mask Group 2" transform="translate(-5 -11)" clip-path="url(#clip-path)">
      <g id="avatar" transform="translate(0 -3)">
        <path id="Path_141" data-name="Path 141" d="M27,1310a5,5,0,1,1-5,5A5,5,0,0,1,27,1310Zm-8,18c0-2.21,4.134-5,8-5s8,2.79,8,5m0,0a3,3,0,0,1-3,3H22a3,3,0,0,1-3-3" fill="rgba(134,158,166,0)" stroke="#7e84a3" stroke-linejoin="round" stroke-width="2" fill-rule="evenodd"/>
      </g>
    </g>
  </g>
</svg>
